<svg width="123" height="123" xmlns="http://www.w3.org/2000/svg" xmlns:xlink="http://www.w3.org/1999/xlink" xml:space="preserve" overflow="hidden"><g transform="translate(-218 -167)"><path d="M248.238 246.075 245.034 255.684 252.337 262.987 261.947 259.784C264.496 261.21 267.206 262.328 270.019 263.116L274.503 272.084 284.753 272.084 289.237 263.116C292.018 262.351 294.688 261.232 297.181 259.784L306.791 262.987 314.094 255.684 310.891 246.075C312.316 243.525 313.434 240.816 314.222 238.003L323.191 233.519 323.191 223.269 314.094 218.912C313.329 216.132 312.209 213.463 310.763 210.969L313.966 201.359 306.663 194.056 297.053 197.259C294.504 195.833 291.794 194.715 288.981 193.928L284.625 184.938 274.375 184.938 269.891 193.906C267.111 194.671 264.441 195.79 261.947 197.238L252.337 194.034 245.034 201.337 248.238 210.947C246.812 213.496 245.694 216.206 244.906 219.019L235.938 223.375 235.938 233.625 244.906 238.109C245.669 240.897 246.789 243.574 248.238 246.075ZM238.5 224.995 246.026 221.338 247.073 220.825 247.379 219.703C248.115 217.085 249.157 214.562 250.484 212.188L251.023 211.207 250.669 210.144 247.966 202.035 253.031 196.968 261.137 199.672 262.233 200.037 263.232 199.458C265.534 198.122 267.999 197.088 270.566 196.383L271.672 196.082 272.184 195.057 275.961 187.5 283.023 187.5 286.675 195.034 287.188 196.079 288.31 196.385C290.927 197.122 293.448 198.165 295.822 199.491L296.805 200.032 297.868 199.677 305.974 196.974 311.039 202.04 308.336 210.149 307.971 211.244 308.55 212.242C309.887 214.545 310.92 217.011 311.625 219.579L311.934 220.71 312.991 221.216 320.628 224.877 320.628 231.932 313.075 235.71 312.05 236.222 311.749 237.327C311.013 239.945 309.971 242.467 308.645 244.841L308.105 245.823 308.459 246.886 311.162 254.995 306.097 260.061 297.991 257.358 296.896 256.992 295.896 257.572C293.594 258.908 291.128 259.942 288.561 260.647L287.457 260.948 286.944 261.973 283.167 269.532 276.089 269.532 272.313 261.973 271.801 260.948 270.695 260.647C268.078 259.91 265.557 258.867 263.185 257.541L262.202 257 261.138 257.355 253.032 260.058 247.967 254.992 250.672 246.886 251.036 245.79 250.458 244.791C249.121 242.489 248.087 240.023 247.383 237.455L247.081 236.35 246.056 235.838 238.5 232.061Z"/><path d="M279.5 243.897C287.991 243.897 294.875 237.013 294.875 228.522 294.875 220.03 287.991 213.147 279.5 213.147 271.009 213.147 264.125 220.03 264.125 228.522 264.152 237.002 271.02 243.87 279.5 243.897ZM279.5 215.7C286.576 215.7 292.312 221.437 292.312 228.513 292.312 235.589 286.576 241.325 279.5 241.325 272.424 241.325 266.688 235.589 266.688 228.513 266.697 221.44 272.428 215.71 279.5 215.7Z"/></g></svg>