<svg width="96" height="96" xmlns="http://www.w3.org/2000/svg" xmlns:xlink="http://www.w3.org/1999/xlink" xml:space="preserve" overflow="hidden"><g transform="translate(-1097 -491)"><path d="M1176 526C1176.55 526 1177 525.552 1177 525L1177 520C1177 519.608 1176.77 519.251 1176.41 519.089L1154.41 509.089C1154.28 509.03 1154.14 508.999 1154 509L1153.46 509 1152.99 504.888C1152.98 504.722 1152.91 504.564 1152.82 504.427L1145.82 494.427C1145.5 493.975 1144.88 493.865 1144.43 494.182 1144.33 494.249 1144.25 494.332 1144.18 494.427L1137.18 504.427C1137.09 504.564 1137.02 504.722 1137.01 504.888L1136.54 509 1136 509C1135.86 509 1135.72 509.03 1135.59 509.09L1113.59 519.09C1113.23 519.252 1113 519.608 1113 520L1113 525C1113 525.552 1113.45 526 1114 526 1114.55 526 1115 525.552 1115 525L1115 521 1135.2 521 1133.98 531.82 1113.59 541.09C1113.23 541.252 1113 541.608 1113 542L1113 547C1113 547.552 1113.45 548 1114 548 1114.55 548 1115 547.552 1115 547L1115 543 1132.72 543 1132.02 549.253 1118.75 582.471C1118.54 582.984 1118.79 583.566 1119.3 583.771 1119.42 583.818 1119.55 583.842 1119.68 583.842 1119.81 583.842 1119.94 583.815 1120.07 583.762L1144.95 573.153 1169.97 583.834C1170.48 584.051 1171.07 583.815 1171.29 583.307 1171.39 583.063 1171.39 582.789 1171.29 582.543L1157.98 549.253 1157.28 543 1175 543 1175 547C1175 547.552 1175.45 548 1176 548 1176.55 548 1177 547.552 1177 547L1177 542C1177 541.608 1176.77 541.252 1176.41 541.09L1156.02 531.82 1154.8 521 1175 521 1175 525C1175 525.552 1175.45 526 1176 526ZM1138.96 505.365 1144.99 496.756C1144.99 496.752 1145 496.75 1145 496.752 1145.01 496.753 1145.01 496.754 1145.01 496.756L1151.04 505.365 1151.44 509 1138.56 509ZM1151.67 511 1152.57 519 1137.43 519 1138.33 511ZM1118.66 519C1118.64 519 1118.64 518.991 1118.66 518.981L1136.22 511 1136.32 511 1135.42 519ZM1118.66 540.981 1133.72 534.135 1132.95 541 1118.66 541C1118.64 541 1118.64 540.991 1118.66 540.981ZM1135.84 533.171 1136.22 533 1153.78 533 1154.16 533.171 1155.04 541 1134.96 541ZM1156.65 551.293 1160.7 561.425 1147.4 555.448ZM1161 563.756C1161.2 563.851 1161.43 563.87 1161.65 563.81L1161.68 563.88C1161.62 563.886 1161.57 563.898 1161.52 563.913L1144.95 570.979 1128.39 563.913C1128.37 563.907 1128.35 563.902 1128.32 563.899L1128.35 563.823C1128.4 563.833 1128.45 563.841 1128.5 563.844 1128.64 563.844 1128.78 563.814 1128.91 563.756L1144.95 556.545ZM1129.33 561.374 1133.35 551.328 1142.52 555.448ZM1121.52 580.968C1121.51 580.968 1121.5 580.968 1121.51 580.955L1127.59 565.739C1127.59 565.739 1127.6 565.75 1127.61 565.753L1142.4 572.065ZM1147.5 572.068 1162.3 565.753C1162.33 565.733 1162.37 565.711 1162.4 565.687L1168.54 581.026C1168.54 581.039 1168.54 581.045 1168.52 581.039ZM1155.98 549.4 1144.95 554.352 1134.01 549.434 1134.74 543 1155.26 543ZM1171.34 541 1157.05 541 1156.28 534.135 1171.34 540.981C1171.36 540.991 1171.36 541 1171.34 541ZM1153.92 531 1136.08 531 1137.21 521 1152.79 521ZM1153.68 511 1153.78 511 1171.34 518.981C1171.36 518.991 1171.36 519 1171.34 519L1154.58 519Z"/></g></svg>