<svg width="96" height="96" xmlns="http://www.w3.org/2000/svg" xmlns:xlink="http://www.w3.org/1999/xlink" xml:space="preserve" overflow="hidden"><g transform="translate(-1097 -197)"><path d="M1187 223 1173 223 1173 221C1173 220.448 1172.55 220 1172 220 1171.45 220 1171 220.448 1171 221L1171 223 1157 223C1156.45 223 1156 223.448 1156 224 1156 224.552 1156.45 225 1157 225L1171 225 1171 228 1170 228C1168.9 228 1168 228.895 1168 230L1168 231.18 1163.79 230.5C1151.34 228.494 1138.66 228.494 1126.21 230.5L1122 231.18 1122 230C1122 228.895 1121.1 228 1120 228L1119 228 1119 225 1133 225C1133.55 225 1134 224.552 1134 224 1134 223.448 1133.55 223 1133 223L1119 223 1119 221C1119 220.448 1118.55 220 1118 220 1117.45 220 1117 220.448 1117 221L1117 223 1103 223C1102.45 223 1102 223.448 1102 224 1102 224.552 1102.45 225 1103 225L1117 225 1117 228 1116 228C1114.9 228 1114 228.895 1114 230L1114 232.468 1111.65 232.846C1109.3 233.211 1107.69 235.415 1108.05 237.768 1108.35 239.669 1109.87 241.144 1111.77 241.385L1117.83 242.185C1120.71 242.566 1123.55 243.233 1126.3 244.174L1127.54 244.596C1128.99 245.095 1130.41 245.669 1131.8 246.317L1126 260.808 1126 271 1128 271 1128 261.192 1133.6 247.2C1133.73 247.267 1133.86 247.328 1133.99 247.4L1134.79 247.828C1136.24 248.598 1137.85 249 1139.49 249L1144 249 1144 252 1139 252C1137.34 252 1136 253.343 1136 255L1136 263C1136 264.657 1137.34 266 1139 266L1151 266C1152.66 266 1154 264.657 1154 263L1154 255C1154 253.343 1152.66 252 1151 252L1146 252 1146 249 1150.51 249C1152.15 248.999 1153.76 248.595 1155.21 247.825L1156.01 247.396C1156.14 247.329 1156.27 247.267 1156.4 247.196L1162 261.192 1162 271 1164 271 1164 260.808 1158.2 246.317C1159.59 245.671 1161.02 245.098 1162.47 244.6L1163.7 244.178C1166.45 243.238 1169.29 242.572 1172.17 242.192L1178.23 241.392C1180.59 241.094 1182.26 238.936 1181.96 236.574 1181.72 234.666 1180.25 233.148 1178.35 232.853L1176 232.468 1176 230C1176 228.895 1175.1 228 1174 228L1173 228 1173 225 1187 225C1187.55 225 1188 224.552 1188 224 1188 223.448 1187.55 223 1187 223ZM1151 254C1151.55 254 1152 254.448 1152 255L1152 263C1152 263.552 1151.55 264 1151 264L1139 264C1138.45 264 1138 263.552 1138 263L1138 255C1138 254.448 1138.45 254 1139 254L1151 254ZM1116 230 1120 230 1120 231.5 1116 232.144ZM1180 237.138C1180.02 238.309 1179.13 239.295 1177.96 239.4L1171.9 240.2C1168.89 240.599 1165.93 241.295 1163.06 242.276L1161.82 242.698C1159.5 243.492 1157.24 244.471 1155.08 245.627L1154.28 246.056C1153.12 246.674 1151.82 246.999 1150.51 247L1139.49 247C1138.18 246.999 1136.89 246.676 1135.73 246.06L1134.93 245.633C1132.76 244.477 1130.5 243.497 1128.18 242.703L1126.95 242.281C1124.07 241.299 1121.11 240.604 1118.1 240.205L1112.04 239.405C1110.77 239.253 1109.87 238.101 1110.02 236.833 1110.15 235.8 1110.94 234.977 1111.97 234.823L1126.53 232.48C1138.77 230.507 1151.24 230.507 1163.48 232.48L1178.03 234.82C1179.19 234.958 1180.05 235.969 1180 237.138ZM1174 230 1174 232.146 1170 231.5 1170 230Z"/><path d="M1141.5 259C1141.5 260.933 1143.07 262.5 1145 262.5 1146.93 262.5 1148.5 260.933 1148.5 259 1148.5 257.067 1146.93 255.5 1145 255.5 1143.07 255.5 1141.5 257.067 1141.5 259ZM1146.5 259C1146.5 259.828 1145.83 260.5 1145 260.5 1144.17 260.5 1143.5 259.828 1143.5 259 1143.5 258.172 1144.17 257.5 1145 257.5 1145.83 257.5 1146.5 258.172 1146.5 259Z"/></g></svg>