<svg width="137" height="137" xmlns="http://www.w3.org/2000/svg" xmlns:xlink="http://www.w3.org/1999/xlink" xml:space="preserve" overflow="hidden"><g transform="translate(-1097 -41)"><path d="M1141.24 133.76 1189.76 133.76 1189.76 85.2396 1141.24 85.2396ZM1144.09 88.0938 1186.91 88.0938 1186.91 130.906 1144.09 130.906Z"/><path d="M1216.88 82.3854 1216.88 79.5312 1204.03 79.5312 1204.03 78.1042C1204.03 74.1653 1200.83 70.9735 1196.9 70.9688L1195.47 70.9688 1195.47 58.125 1192.61 58.125 1192.61 70.9688 1184.05 70.9688 1184.05 58.125 1181.2 58.125 1181.2 70.9688 1172.64 70.9688 1172.64 58.125 1169.78 58.125 1169.78 70.9688 1161.22 70.9688 1161.22 58.125 1158.36 58.125 1158.36 70.9688 1149.8 70.9688 1149.8 58.125 1146.95 58.125 1146.95 70.9688 1138.39 70.9688 1138.39 58.125 1135.53 58.125 1135.53 70.9688 1134.1 70.9688C1130.17 70.9735 1126.97 74.1653 1126.97 78.1042L1126.97 79.5312 1114.12 79.5312 1114.12 82.3854 1126.97 82.3854 1126.97 90.9479 1114.12 90.9479 1114.12 93.8021 1126.97 93.8021 1126.97 102.365 1114.12 102.365 1114.12 105.219 1126.97 105.219 1126.97 113.781 1114.12 113.781 1114.12 116.635 1126.97 116.635 1126.97 125.198 1114.12 125.198 1114.12 128.052 1126.97 128.052 1126.97 136.615 1114.12 136.615 1114.12 139.469 1126.97 139.469 1126.97 140.896C1126.97 144.835 1130.17 148.027 1134.1 148.031L1135.53 148.031 1135.53 160.875 1138.39 160.875 1138.39 148.031 1146.95 148.031 1146.95 160.875 1149.8 160.875 1149.8 148.031 1158.36 148.031 1158.36 160.875 1161.22 160.875 1161.22 148.031 1169.78 148.031 1169.78 160.875 1172.64 160.875 1172.64 148.031 1181.2 148.031 1181.2 160.875 1184.05 160.875 1184.05 148.031 1192.61 148.031 1192.61 160.875 1195.47 160.875 1195.47 148.031 1196.9 148.031C1200.83 148.027 1204.03 144.835 1204.03 140.896L1204.03 139.469 1216.88 139.469 1216.88 136.615 1204.03 136.615 1204.03 128.052 1216.88 128.052 1216.88 125.198 1204.03 125.198 1204.03 116.635 1216.88 116.635 1216.88 113.781 1204.03 113.781 1204.03 105.219 1216.88 105.219 1216.88 102.365 1204.03 102.365 1204.03 93.8021 1216.88 93.8021 1216.88 90.9479 1204.03 90.9479 1204.03 82.3854ZM1201.18 140.896C1201.18 143.26 1199.26 145.177 1196.9 145.177L1134.1 145.177C1131.74 145.177 1129.82 143.26 1129.82 140.896L1129.82 78.1042C1129.82 75.7396 1131.74 73.8229 1134.1 73.8229L1196.9 73.8229C1199.26 73.8229 1201.18 75.7396 1201.18 78.1042Z"/></g></svg>