<svg width="96" height="96" xmlns="http://www.w3.org/2000/svg" xmlns:xlink="http://www.w3.org/1999/xlink" xml:space="preserve" overflow="hidden"><g transform="translate(-1097 -310)"><path d="M1169.99 367.979 1170 367.979 1170 330.837C1172.14 330.29 1173.42 328.115 1172.88 325.979 1172.33 323.843 1170.15 322.556 1168.02 323.103 1166.61 323.465 1165.5 324.567 1165.14 325.979L1128 325.979 1122 319.979C1116.09 330.771 1115.49 343.687 1120.38 354.979 1122.13 358.953 1124.56 362.594 1127.55 365.74L1114.75 393.158C1114.29 394.16 1114.72 395.349 1115.72 395.814 1115.99 395.937 1116.28 396.001 1116.57 396L1141.43 396C1142.53 396 1143.43 395.104 1143.43 394 1143.43 393.707 1143.37 393.419 1143.24 393.154L1132.62 370.4C1135.4 372.665 1138.48 374.524 1141.78 375.92 1146.64 377.947 1151.84 378.994 1157.1 379 1157.27 379 1157.45 379 1157.62 379 1164.11 378.933 1170.49 377.284 1176.2 374.195ZM1149.7 347.689 1166.98 330.413C1167.3 330.601 1167.64 330.744 1168 330.837L1168 365.989ZM1169 324.979C1170.1 324.979 1171 325.874 1171 326.979 1171 328.084 1170.1 328.979 1169 328.979 1167.9 328.979 1167 328.084 1167 326.979 1167 325.874 1167.9 324.979 1169 324.979ZM1165.14 327.979C1165.23 328.338 1165.38 328.681 1165.57 329L1148.29 346.275 1130 327.979ZM1133.84 377.743 1129 382.586 1124.16 377.743 1128.99 367.384C1128.99 367.379 1129 367.377 1129 367.379 1129.01 367.38 1129.01 367.382 1129.01 367.384ZM1123.26 379.671 1127.59 384 1117.59 394 1116.59 394C1116.58 394 1116.58 393.996 1116.58 393.992 1116.58 393.99 1116.58 393.988 1116.58 393.986ZM1129 385.414 1137.57 393.983C1137.57 393.987 1137.57 393.993 1137.57 393.997 1137.57 393.999 1137.56 394 1137.56 394L1120.44 394C1120.43 394 1120.43 393.995 1120.43 393.99 1120.43 393.987 1120.43 393.985 1120.43 393.983ZM1140.41 394 1130.41 384 1134.74 379.671 1141.42 393.986C1141.43 393.99 1141.42 393.996 1141.42 393.999 1141.42 394 1141.42 394 1141.42 394ZM1157.1 377C1152.1 376.998 1147.16 376.005 1142.55 374.077 1138.84 372.5 1135.42 370.322 1132.43 367.631L1131.76 367.041C1127.67 363.512 1124.41 359.119 1122.21 354.18 1117.95 344.319 1118.07 333.114 1122.54 323.345L1172.81 373.627C1168.04 375.818 1162.87 376.968 1157.62 377 1157.46 377 1157.3 377 1157.1 377Z"/></g></svg>